<svg height="511pt" viewBox="1 0 511 511.8413" width="511pt" xmlns="http://www.w3.org/2000/svg"><path d="m320.320312 290.085938-60.917968 60.917968c-9.898438.058594-19.625 2.59375-28.292969 7.375l-38.617187-38.617187 78.710937-78.707031 5.902344 5.898437zm0 0" fill="#2fa8cc" fill-rule="evenodd"/><path d="m271.203125 241.054688-78.710937 78.707031-38.617188-38.617188c4.785156-8.664062 7.320312-18.390625 7.378906-28.289062l60.917969-60.917969 43.128906 43.214844zm0 0" fill="#2fa8cc" fill-rule="evenodd"/><path d="m260.703125 251.554688-59.53125 59.53125" fill="#3f5c6c"/><path d="m198.65625 325.925781 76.886719-76.886719c.613281-.621093 1.140625-1.320312 1.5625-2.085937l-5.902344-5.898437-5.902344-5.902344c-.761719.421875-1.464843.949218-2.082031 1.5625l-76.886719 76.886718zm0 0" fill="#3f5c6c"/><g fill-rule="evenodd"><path d="m420.898438 109.582031-4.601563 78.277344c-.070313 1.945313-.511719 3.859375-1.300781 5.640625l-23.601563-23.605469c-3.386719-3.363281-8.851562-3.363281-12.238281 0-3.382812 3.410157-3.382812 8.914063 0 12.324219l24.472656 24.558594-12.234375 12.234375-12.238281 12.324219-12.320312 12.320312-12.152344 12.148438-27.160156 27.164062-98.234376-98.234375 83.828126-83.742187c2.992187-3.039063 7.023437-4.835938 11.28125-5.035157l78.277343-4.597656c4.90625-.253906 9.6875 1.585937 13.160157 5.058594 3.476562 3.476562 5.3125 8.257812 5.0625 13.164062zm0 0" fill="#ff5364"/><path d="m268.425781 255.632812 43.214844 43.128907 24.558594-24.472657-98.234375-98.234374-24.46875 24.558593v.089844zm0 0" fill="#9fc9d3"/><path d="m133.65625 378.601562c-30.480469-30.480468-79.898438-30.480468-110.375 0-30.480469 30.480469-30.480469 79.898438 0 110.378907 30.476562 30.480469 79.894531 30.480469 110.375.003906 14.667969-14.625 22.910156-34.480469 22.910156-55.191406 0-20.710938-8.242187-40.570313-22.910156-55.191407zm-24.472656 85.910157c-16.964844 16.964843-44.46875 16.960937-61.433594-.003907-16.964844-16.964843-16.964844-44.46875 0-61.433593 16.964844-16.964844 44.46875-16.964844 61.433594-.003907 16.835937 17.023438 16.835937 44.421876 0 61.441407zm0 0" fill="#67b9cc"/><path d="m311.640625 360.117188c-11.523437-11.566407-27.234375-17.980469-43.5625-17.792969-15.882813.242187-31.058594 6.617187-42.347656 17.792969-4.144531 4.167968-7.679688 8.902343-10.5 14.058593-14.867188 27.511719-6.414063 61.820313 19.535156 79.277344s60.910156 12.359375 80.796875-11.78125c19.882812-24.140625 18.1875-59.433594-3.921875-81.554687zm-24.558594 61.4375c-10.175781 10.140624-26.640625 10.121093-36.792969-.042969-10.152343-10.164063-10.152343-26.628907 0-36.792969 10.152344-10.167969 26.617188-10.183594 36.792969-.042969 4.902344 4.882813 7.660157 11.519531 7.660157 18.4375 0 6.921875-2.757813 13.558594-7.660157 18.441407zm0 0" fill="#67b9cc"/><path d="m152.140625 200.613281c-22.121094-22.105469-57.414063-23.800781-81.554687-3.917969-24.144532 19.882813-29.242188 54.847657-11.78125 80.796876 17.457031 25.949218 51.761718 34.402343 79.277343 19.535156 5.15625-2.824219 9.890625-6.355469 14.058594-10.5 4.164063-4.132813 7.675781-8.871094 10.414063-14.058594 4.78125-8.667969 7.316406-18.394531 7.375-28.289062.191406-16.328126-6.226563-32.039063-17.789063-43.566407zm-24.558594 61.355469c-7.441406 7.453125-18.644531 9.683594-28.375 5.65625s-16.078125-13.523438-16.078125-24.054688 6.347656-20.027343 16.078125-24.054687 20.933594-1.792969 28.375 5.65625c10.09375 10.1875 10.09375 26.609375 0 36.796875zm0 0" fill="#67b9cc"/></g><path d="m120.074219 367.644531 61.65625-61.660156 24.546875 24.546875-61.660156 61.65625zm0 0" fill="#3f5c6c"/><path d="m239.789062 349.703125-24.558593 24.472656-26.292969-26.296875-24.558594-24.558594-26.296875-26.292968 24.472657-24.558594zm0 0" fill="#41767f" fill-rule="evenodd"/><path d="m414.996094 193.5c-.828125 2.125-2.097656 4.046875-3.730469 5.640625l-1.476563 1.472656-5.726562 5.730469-.347656.433594h-.085938l-24.472656-24.558594c-3.382812-3.410156-3.382812-8.914062 0-12.324219 3.386719-3.363281 8.851562-3.363281 12.238281 0zm0 0" fill="#285680"/><path d="m391.394531 219.011719-24.558593-24.558594c-3.386719-3.363281-8.851563-3.363281-12.238282 0-3.382812 3.410156-3.382812 8.914063 0 12.324219l24.558594 24.558594zm0 0" fill="#285680"/><path d="m366.835938 243.65625v-.085938l-24.472657-24.558593c-3.402343-3.402344-8.921875-3.402344-12.324219 0-3.402343 3.402343-3.402343 8.921875 0 12.324219l24.558594 24.46875h.085938zm0 0" fill="#285680"/><path d="m415.960938 104.976562c-3.511719-.003906-6.671876-2.117187-8.015626-5.359374-1.34375-3.242188-.601562-6.972657 1.878907-9.457032l87.726562-87.722656c3.40625-3.289062 8.816407-3.242188 12.164063.105469 3.347656 3.347656 3.394531 8.757812.105468 12.164062l-87.707031 87.726563c-1.632812 1.628906-3.847656 2.546875-6.152343 2.542968zm0 0" fill="#3f5c6c"/></svg>